<svg width="493" height="148" viewBox="0 0 493 148" fill="none" xmlns="http://www.w3.org/2000/svg">
<path id="path1" d="M244.538 131.033C242.395 123.575 242.507 113.433 244.865 100.03L249.627 73.0425L255.459 39.9518C256.103 36.2964 253.666 33.3404 250.01 33.3404H210.692C207.036 33.3404 203.55 36.2964 202.907 39.9518L192.493 99.0254C192.031 101.677 189.504 103.82 186.852 103.82C184.201 103.82 182.441 101.677 182.904 99.0254L193.351 39.8051C193.994 36.1384 191.546 33.1825 187.879 33.1938L149.08 33.3291C145.435 33.3404 141.96 36.2964 141.317 39.9405L130.182 103.11C129.144 109.021 128.512 114.584 128.309 119.796C128.106 124.997 128.862 129.589 130.588 133.549C132.314 137.509 135.53 140.623 140.212 142.868C144.905 145.113 151.686 146.241 160.565 146.241C167.424 146.241 173.178 145.023 177.804 142.597C182.43 140.172 186.04 137.001 188.624 133.098C190.869 129.702 192.448 126.046 193.351 122.109C193.588 121.105 194.547 120.315 195.551 120.315C196.555 120.315 197.288 121.161 197.108 122.21L194.536 136.776C193.892 140.431 196.329 143.387 199.985 143.387H237.216C242.474 143.387 246.874 137.791 245.226 133.143C244.978 132.455 244.753 131.755 244.55 131.022L244.538 131.033Z" fill="#F8F8EB"/>
<path id = "path2" d="M125.117 43.2093C123.391 39.2493 120.176 36.1354 115.493 33.8902C110.8 31.6451 104.019 30.5168 95.1404 30.5168C88.2808 30.5168 82.5269 31.7353 77.9012 34.161C73.2755 36.5867 69.6652 39.757 67.0815 43.6606C64.8364 47.0566 63.2569 50.712 62.3543 54.6495C62.1174 55.6536 61.1584 56.4434 60.1543 56.4434C59.1501 56.4434 58.4168 55.5972 58.5973 54.5479L61.1697 39.9826C61.8127 36.3272 59.3758 33.3712 55.7204 33.3712H18.4891C13.2316 33.3712 8.83152 38.9672 10.4787 43.6155C10.7269 44.3037 10.9526 45.0032 11.1556 45.7365C13.2993 53.1941 13.1864 63.3368 10.8285 76.74L6.06738 103.727L0.245758 136.795C-0.397328 140.451 2.03963 143.407 5.69506 143.407H45.0135C48.669 143.407 52.1552 140.439 52.7983 136.795L63.2117 77.7216C63.6743 75.0703 66.2015 72.9267 68.8528 72.9267C71.5042 72.9267 73.2642 75.0703 72.8016 77.7216L62.3543 136.942C61.7112 140.609 64.1594 143.565 67.8262 143.553L106.626 143.418C110.27 143.407 113.745 140.451 114.388 136.806L125.523 73.6374C126.561 67.7256 127.193 62.1634 127.396 56.9511C127.599 51.75 126.843 47.1581 125.117 43.198V43.2093Z" fill="#F8F8EB"/>
<path d="M366.106 133.197C364.177 126.473 364.075 117.549 365.813 106.019L383.187 7.46855C383.83 3.81312 381.393 0.857178 377.738 0.857178H339.841C336.186 0.857178 332.699 3.81312 332.056 7.46855L315.731 100.084C313.565 112.393 313.407 121.802 315.28 128.312C317.153 134.822 321.124 138.579 325.693 141.715C332.869 146.623 346.847 146.691 358.829 145.563C364.064 145.506 368.419 139.933 366.772 135.307C366.523 134.619 366.298 133.919 366.095 133.186L366.106 133.197Z" fill="#F8F8EB"/>
<path d="M486.305 134.135C486.057 133.446 485.831 132.747 485.628 132.013C483.53 124.725 483.598 114.865 485.809 101.901L491.439 69.9501C493.65 57.4043 490.863 47.8482 483.09 41.282C482.142 40.4809 481.138 39.7363 480.066 39.0368C480.066 39.0368 480.044 39.0255 480.032 39.0143C479.908 38.9353 479.784 38.8563 479.66 38.7886C459.115 25.3741 413.151 28.9505 391.185 39.0143C388.759 40.1199 386.977 42.4215 386.537 44.9036L382.441 68.1111C381.64 72.6691 385.566 75.8732 390.136 74.3501C400.809 70.7962 420.733 66.3962 440.883 69.6342C442.158 69.7583 443.162 70.2885 443.884 71.2362L443.907 71.2701C445.148 72.9286 443.377 75.6024 441.154 75.4445C439.529 75.3204 437.961 75.2301 436.449 75.1512C434.046 75.0383 431.654 74.9706 429.296 74.9706C425.765 74.9706 413.219 75.0496 405.062 77.4189C390.102 82.2251 377.601 95.5832 374.826 111.322C371.34 131.1 384.551 147.143 404.329 147.143C424.93 147.143 433.031 132.171 433.674 130.118C433.866 129.486 434.351 128.9 434.983 128.685C436.212 128.279 437.149 129.125 436.957 130.231L435.626 137.767C434.983 141.423 437.419 144.379 441.075 144.379H478.306C483.564 144.367 487.952 138.772 486.294 134.135H486.305ZM434.317 111.006C433.854 113.657 431.327 115.801 428.676 115.801C426.024 115.801 424.264 113.657 424.727 111.006L426.701 99.8253C427.164 97.174 429.691 95.0304 432.342 95.0304C434.994 95.0304 436.754 97.174 436.291 99.8253L434.317 111.006Z" fill="#F8F8EB"/>
<path d="M305.057 133.197C303.128 126.473 303.026 117.549 304.764 106.019L322.138 7.46855C322.782 3.81312 320.345 0.857178 316.689 0.857178H278.792C275.137 0.857178 271.651 3.81312 271.008 7.46855L254.682 100.084C252.516 112.393 252.358 121.802 254.231 128.312C256.104 134.822 260.075 138.579 264.644 141.715C271.82 146.623 285.799 146.691 297.78 145.563C303.015 145.506 307.37 139.933 305.723 135.307C305.475 134.619 305.249 133.919 305.046 133.186L305.057 133.197Z" fill="#F8F8EB"/>
</svg>
