<svg width="511" height="165" viewBox="0 0 511 165" fill="none" xmlns="http://www.w3.org/2000/svg">
<path d="M509.874 84.0243C513.528 63.3348 505.313 51.3986 497.781 45.0327C496.571 44.0128 495.27 43.0377 493.892 42.1298C493.892 42.1298 493.87 42.1186 493.858 42.1074C493.746 42.0289 493.634 41.9617 493.522 41.8833C493.399 41.8048 493.276 41.7264 493.163 41.6591C479.86 33.0292 461.121 31.2247 447.716 31.2247C430.479 31.2247 412.49 34.2396 399.31 39.2158L402.751 19.7256C403.636 14.7046 402.325 9.66106 399.164 5.89527C396.026 2.15189 391.33 0 386.298 0H288.006C278.894 0 270.836 6.80309 269.244 15.8365L266.106 33.6344C264.033 32.7602 261.769 32.2671 259.415 32.2671H233.077L233.178 32.1549H198.759C198.412 32.1325 198.076 32.1101 197.728 32.1101C197.728 32.1101 197.661 32.1101 197.638 32.1101L159.117 32.2446C151.877 32.267 145.298 36.6157 142.127 42.9368C139.257 39.2383 135.436 36.2121 130.639 33.9146C124.374 30.9221 116.181 29.4651 105.578 29.4651C96.9595 29.4651 89.4503 31.1127 83.2525 34.3629C81.5601 35.2483 79.9574 36.2233 78.4556 37.2656C75.3511 34.0827 71.0249 32.2895 66.4185 32.2895H29.4331C23.168 32.2895 17.1942 35.4501 13.4509 40.7513C9.92042 45.7499 8.97896 51.9814 10.9179 57.4284C11.086 57.8879 11.2429 58.381 11.3774 58.8742C13.0025 64.5341 12.8008 73.1976 10.7834 84.6407L6.05372 111.45C6.0313 111.595 6.00889 111.752 5.98648 111.898L0.270568 145.274C-0.614841 150.296 0.696475 155.339 3.85705 159.105C6.99521 162.848 11.6912 165 16.7235 165H486.226C486.383 165 486.528 165 486.674 165C492.771 164.843 498.554 161.705 502.197 156.527C505.716 151.54 506.657 145.308 504.719 139.872C504.55 139.413 504.393 138.92 504.259 138.426C502.679 132.924 502.824 124.551 504.707 113.523L509.908 84.0467L509.874 84.0243ZM129.316 110.822C128.195 117.165 127.512 123.24 127.288 128.9C127.254 129.797 127.243 130.682 127.254 131.567L124.665 146.261C124.026 149.881 120.585 152.817 116.954 152.828L78.4107 152.963H78.3883C74.757 152.963 72.3362 150.027 72.975 146.395L83.3534 87.5659C83.8129 84.9321 82.0645 82.8026 79.4307 82.8026C76.7968 82.8026 74.2975 84.9321 73.8268 87.5659L63.482 146.25C62.8432 149.881 59.3801 152.817 55.7488 152.817H16.6898C13.0585 152.817 10.6377 149.881 11.2766 146.25L17.0709 113.377L21.8005 86.5684C24.1542 73.2537 24.2551 63.1779 22.1256 55.7696C21.9239 55.0523 21.6885 54.3462 21.4531 53.6625C19.8168 49.045 24.1766 43.486 29.4106 43.486H66.3961C70.0274 43.486 72.4483 46.4224 71.8094 50.0537L69.254 64.5228C69.0747 65.5651 69.7696 66.4057 70.8007 66.4057C71.8318 66.4057 72.7509 65.6212 72.9862 64.6237C73.894 60.7234 75.4519 57.0809 77.6823 53.7074C80.2488 49.8295 83.824 46.6801 88.4304 44.2705C93.0256 41.8608 98.7415 40.6504 105.556 40.6504C114.376 40.6504 121.112 41.7712 125.775 44.0015C130.437 46.2318 133.62 49.3252 135.335 53.2591C136.702 56.4084 137.453 59.9501 137.599 63.8952L129.327 110.822H129.316ZM246.683 152.795H209.698C206.067 152.795 203.646 149.858 204.285 146.227L206.84 131.758C207.019 130.716 206.324 129.875 205.293 129.875C204.262 129.875 203.343 130.66 203.108 131.657C202.2 135.557 200.642 139.2 198.412 142.573C195.845 146.451 192.27 149.601 187.664 152.01C183.068 154.42 177.352 155.63 170.538 155.63C161.718 155.63 154.982 154.51 150.319 152.279C145.657 150.049 142.474 146.956 140.759 143.022C139.392 139.872 138.641 136.331 138.495 132.386L146.767 85.4588C147.887 79.1153 148.571 73.0407 148.795 67.3808C148.829 66.4842 148.84 65.5876 148.829 64.7134L151.418 50.02C152.057 46.3999 155.497 43.4635 159.129 43.4523L197.672 43.3178H197.694C201.326 43.3178 203.747 46.2542 203.108 49.8855L192.729 108.715C192.27 111.349 194.018 113.478 196.652 113.478C199.286 113.478 201.785 111.349 202.256 108.715L212.601 50.0313C213.24 46.4 216.703 43.4635 220.334 43.4635H259.393C261.377 43.4635 262.991 44.3378 263.943 45.7275L252.993 107.818C250.516 121.873 250.46 132.699 252.814 140.903C253.363 142.831 254.047 144.58 254.809 146.193C254.013 149.69 250.584 152.795 246.683 152.795ZM306.858 154.935C303.081 155.305 299.091 155.541 295.19 155.541C286.807 155.541 278.793 154.454 273.941 151.125C270.937 149.063 268.191 146.731 266.151 143.526C266.05 141.946 265.748 140.377 265.21 138.875C265.042 138.415 264.885 137.922 264.75 137.429C263.125 131.769 263.327 123.106 265.344 111.662L270.018 85.1898C270.074 84.9097 270.119 84.6183 270.164 84.3269L275.868 51.9926C276.317 49.4485 276.193 46.9155 275.566 44.5283L280.284 17.7755C280.923 14.1442 284.386 11.2077 288.017 11.2077H325.664C327.782 11.2077 329.475 12.2052 330.405 13.7631C330.203 14.4356 330.024 15.1304 329.901 15.8365L313.683 107.841C311.206 121.895 311.139 132.722 313.504 140.926C313.784 141.901 314.109 142.82 314.445 143.717C314.557 144.075 314.669 144.434 314.781 144.781C316.418 149.376 312.092 154.913 306.891 154.958L306.858 154.935ZM380.156 83.2061L375.863 107.527C374.25 111.203 373.05 115.047 372.367 118.981C370.798 127.869 371.862 136.667 375.258 144.299C375.314 144.445 375.348 144.613 375.404 144.759C377.04 149.354 372.714 154.891 367.514 154.935C363.737 155.305 359.747 155.541 355.847 155.541C347.463 155.541 339.45 154.454 334.597 151.125C330.584 148.379 327.054 145.151 324.992 139.996C324.947 139.85 324.891 139.715 324.857 139.558C323.411 134.537 323.411 127.107 324.857 117.468L342.095 19.7144C342.397 18.022 342.42 16.3297 342.229 14.6821C343.697 12.6087 346.129 11.1966 348.64 11.1966H386.287C389.918 11.1966 392.339 14.133 391.7 17.7643L386.298 48.4286C384.975 50.502 384.045 52.822 383.619 55.2429L379.943 76.0556C379.517 78.4765 379.607 80.9085 380.167 83.1949L380.156 83.2061ZM498.834 82.0741L493.634 111.573C491.437 124.439 491.381 134.235 493.455 141.486C493.657 142.204 493.892 142.91 494.127 143.593C495.764 148.2 491.404 153.759 486.192 153.77H449.207C445.575 153.77 443.155 150.833 443.793 147.202L445.116 139.715C445.273 138.808 444.668 138.079 443.76 138.079C443.569 138.079 443.368 138.113 443.155 138.18C442.516 138.393 442.045 138.976 441.855 139.603C441.216 141.643 433.18 156.516 412.703 156.516C400.207 156.516 390.366 150.071 385.737 140.332C385.659 140.074 385.569 139.827 385.491 139.57C384.045 134.549 384.045 127.118 385.491 117.479L386.657 110.844C391.879 99.7823 401.91 90.9731 413.432 87.2633C421.535 84.8985 433.987 84.8312 437.506 84.8312C439.86 84.8312 442.224 84.8873 444.612 85.0106C446.113 85.089 447.671 85.1787 449.285 85.302C449.352 85.302 449.42 85.302 449.476 85.302C451.594 85.302 453.208 82.7466 452.009 81.1551L451.986 81.1214C451.269 80.18 450.272 79.6532 449.005 79.53C444.085 78.7454 439.187 78.4092 434.435 78.4092C419.82 78.4092 406.595 81.5473 398.593 84.2148C397.819 84.4726 397.057 84.5959 396.34 84.5959C394.345 84.5959 392.664 83.6656 391.7 82.175L396.844 53.0238C397.528 52.3289 398.346 51.7573 399.243 51.3426C411.022 45.9517 429.739 42.4325 447.694 42.4325C462.992 42.4325 477.742 44.9878 487.134 51.1184C487.257 51.1969 487.38 51.2641 487.504 51.3426C487.515 51.3426 487.526 51.3538 487.537 51.365C488.602 52.0599 489.599 52.7995 490.541 53.5953C498.263 60.1182 501.031 69.6112 498.834 82.0741Z" fill="#231F20"/>
<path d="M253.782 140.598C251.653 133.19 251.765 123.114 254.107 109.8L258.837 82.9908L264.631 50.1186C265.27 46.4873 262.849 43.5509 259.218 43.5509H220.159C216.528 43.5509 213.065 46.4873 212.426 50.1186L202.081 108.802C201.622 111.436 199.111 113.565 196.477 113.565C193.843 113.565 192.095 111.436 192.554 108.802L202.933 49.9729C203.572 46.3304 201.14 43.394 197.497 43.4052L158.954 43.5397C155.334 43.5509 151.882 46.4873 151.243 50.1074L140.181 112.859C139.15 118.732 138.522 124.258 138.32 129.436C138.119 134.602 138.87 139.164 140.584 143.098C142.299 147.032 145.493 150.125 150.145 152.355C154.807 154.586 161.543 155.707 170.363 155.707C177.177 155.707 182.893 154.496 187.489 152.086C192.084 149.677 195.67 146.527 198.237 142.649C200.467 139.276 202.036 135.645 202.933 131.733C203.168 130.736 204.121 129.951 205.118 129.951C206.116 129.951 206.844 130.792 206.665 131.834L204.11 146.303C203.471 149.935 205.892 152.871 209.523 152.871H246.508C251.731 152.871 256.102 147.312 254.466 142.694C254.219 142.011 253.995 141.316 253.793 140.587L253.782 140.598Z" fill="#F8F8EB"/>
<path d="M135.148 53.3466C133.433 49.4127 130.239 46.3193 125.588 44.089C120.926 41.8587 114.19 40.7379 105.369 40.7379C98.5551 40.7379 92.8391 41.9483 88.2439 44.358C83.6488 46.7676 80.0623 49.9171 77.4958 53.7949C75.2654 57.1684 73.6963 60.7997 72.7997 64.7112C72.5644 65.7087 71.6117 66.4932 70.6142 66.4932C69.6167 66.4932 68.8882 65.6526 69.0675 64.6103L71.6229 50.1412C72.2618 46.5099 69.8409 43.5735 66.2096 43.5735H29.2241C24.0013 43.5735 19.6303 49.1325 21.2666 53.7501C21.5132 54.4337 21.7374 55.1286 21.9391 55.8571C24.0686 63.2654 23.9565 73.3411 21.614 86.6559L16.8844 113.465L11.0901 146.337C10.4512 149.968 12.872 152.905 16.5033 152.905H55.5623C59.1936 152.905 62.6567 149.957 63.2955 146.337L73.6403 87.6534C74.0998 85.0196 76.6104 82.8901 79.2442 82.8901C81.878 82.8901 83.6264 85.0196 83.1669 87.6534L72.7885 146.483C72.1497 150.125 74.5817 153.062 78.2242 153.05L116.768 152.916C120.388 152.905 123.84 149.968 124.478 146.348L135.54 83.5962C136.572 77.7234 137.199 72.198 137.401 67.02C137.603 61.8533 136.852 57.2917 135.137 53.3578L135.148 53.3466Z" fill="#F8F8EB"/>
<path d="M374.545 142.815C372.629 136.135 372.528 127.27 374.254 115.816L391.514 17.9162C392.153 14.2849 389.732 11.3485 386.1 11.3485H348.454C344.822 11.3485 341.359 14.2849 340.72 17.9162L324.503 109.92C322.351 122.148 322.194 131.495 324.055 137.962C325.915 144.429 329.86 148.161 334.399 151.277C341.527 156.152 355.414 156.219 367.316 155.099C372.517 155.043 376.843 149.506 375.207 144.911C374.96 144.227 374.736 143.532 374.534 142.804L374.545 142.815Z" fill="#F8F8EB"/>
<path d="M493.953 143.67C493.706 142.986 493.482 142.291 493.28 141.563C491.196 134.322 491.263 124.527 493.46 111.649L498.66 82.1504C500.857 69.6874 498.088 60.1945 490.366 53.6716C489.425 52.8758 488.427 52.1361 487.363 51.4412C487.363 51.4412 487.34 51.4301 487.329 51.4189C487.206 51.3404 487.083 51.262 486.959 51.1947C466.55 37.8687 420.89 41.4216 399.068 51.4189C396.659 52.5172 394.888 54.8036 394.451 57.2693L390.775 78.082C389.979 82.6099 393.879 85.7929 398.418 84.2798C409.021 80.7494 428.814 76.3784 448.831 79.595C450.097 79.7183 451.095 80.2451 451.812 81.1866L451.834 81.2201C453.067 82.8677 451.308 85.5239 449.1 85.367C447.486 85.2437 445.928 85.1541 444.426 85.0756C442.039 84.9635 439.663 84.8963 437.32 84.8963C433.812 84.8963 421.349 84.9747 413.246 87.3284C398.385 92.1029 385.967 105.373 383.209 121.008C379.746 140.655 392.87 156.592 412.518 156.592C432.165 156.592 441.03 141.719 441.669 139.68C441.859 139.052 442.341 138.469 442.969 138.256C444.191 137.853 445.121 138.693 444.93 139.792L443.608 147.278C442.969 150.91 445.39 153.846 449.021 153.846H486.007C491.229 153.835 495.589 148.276 493.942 143.67H493.953ZM442.308 120.694C441.848 123.328 439.338 125.457 436.704 125.457C434.07 125.457 432.322 123.328 432.781 120.694L434.742 109.587C435.202 106.953 437.712 104.824 440.346 104.824C442.98 104.824 444.729 106.953 444.269 109.587L442.308 120.694Z" fill="#F8F8EB"/>
<path d="M313.889 142.739C311.972 136.059 311.871 127.194 313.597 115.74L330.857 17.8402C331.496 14.2089 329.075 11.2725 325.444 11.2725H287.797C284.166 11.2725 280.703 14.2089 280.064 17.8402L263.846 109.844C261.695 122.072 261.538 131.419 263.398 137.886C265.259 144.353 269.204 148.085 273.743 151.201C280.871 156.076 294.757 156.143 306.66 155.023C311.86 154.967 316.186 149.43 314.55 144.835C314.304 144.151 314.079 143.456 313.878 142.728L313.889 142.739Z" fill="#F8F8EB"/>
<path d="M440.532 104.747C437.898 104.747 435.399 106.877 434.928 109.511L432.967 120.617C432.507 123.251 434.255 125.381 436.889 125.381C439.523 125.381 442.022 123.251 442.493 120.617L444.455 109.511C444.914 106.877 443.166 104.747 440.532 104.747Z" fill="#231F20"/>
</svg>
